# xmcd
# Track frame offsets:
# 150
# 18716
# 37809
# 49828
# 70092
# 88076
# 105678
# 124333
# 139586
# 160730
# 181029
# 196577
# 211484
# 226585
# 247931
# 261359
# 278815
# 295069
# 308122
# 320858
#
# Disc length: 4575 seconds
# Revision: 0
# Processed by: cddbd v1.5.2PL0 Copyright (c) Steve Scherf et al.
# Submitted via: VisiTrax 2.11.3.279 - For more info visit www.synapsa.com
#
DISCID=1711dd14
DTITLE=Various (1960's-1970's) Pop and Rock and Prog Rock and Disco and Jazz and Fun
DTITLE=k and AOR and Country and Country Pop Artists - The 70's US Playlist: 60 Cla
DTITLE=ssicUS Tracks From The Seventies: CD3 of 3: *ReMastered Tracks
DYEAR=1970
DGENRE=Pop
TTITLE0=Bill Withers - Lovely Day*
TTITLE1=Lou Reed - Walk On The Wild Side*
TTITLE2=Dolly Parton - Jolene*
TTITLE3=Janis Joplin - Me And Bobby McGhee*
TTITLE4=Ram Jam - Black Betty*
TTITLE5=Isley Brothers The - Harvest For The World*
TTITLE6=Blood Sweat and Tears - Spinning Wheel*
TTITLE7=Patti Smith Group The - Because The NigHt*
TTITLE8=Gladys Knight and The Pips - The Way We Were - Try To Remember*
TTITLE9=Eric Carmen - All By Myself*
TTITLE10=Harold Melvin and The Blue Notes - If You Don't Know Me By Now*
TTITLE11=Delfonics The - La-La Means I Love You*
TTITLE12=Harry Nilson - Without You*
TTITLE13=John Denver - Rocky Mountain High*
TTITLE14=Billy Swan - I Can Help*
TTITLE15=Steve Goodman - City Of New Orleans*
TTITLE16=Charlie Daniels Band The - The Devil Went Down To Georgia*
TTITLE17=Paul Revere and The Raiders feat: Marl Lindsay - Indian Reservation (Th
TTITLE17=e Lament Of The Cherokee Reservation Indian)*
TTITLE18=Freddy Fender - Wasted Days And Wasted Nights*
TTITLE19=Guy Clark - L.A. Freeway*
EXTD=Compilation and ReMastering: Crimson/Sony: 2017
EXTT0=
EXTT1=
EXTT2=
EXTT3=
EXTT4=
EXTT5=
EXTT6=
EXTT7=
EXTT8=
EXTT9=
EXTT10=
EXTT11=
EXTT12=
EXTT13=
EXTT14=
EXTT15=
EXTT16=
EXTT17=
EXTT18=
EXTT19=
PLAYORDER=
